<svg height="512" viewBox="0 0 58 61" width="512" xmlns="http://www.w3.org/2000/svg"><path id="Shape" d="m18.479 59.626c.5549566.8602775 1.5102898 1.3781721 2.5340253 1.3737176 1.0237354-.0044546 1.9745256-.5306433 2.5219747-1.3957176l17.393-28.564c.3758484-.6173789.3893472-1.3895118.0353085-2.019651-.3540387-.6301391-1.0205231-1.0202288-1.7433085-1.020349h-4.22c-.0203007-3.7476188.6131915-7.4700623 1.872-11h19.106c.5418894.0002863 1.0607014-.2193265 1.4376999-.6085775.3769986-.389251.5799116-.9148193.5623001-1.4564225-.54-12.749-10.778-13.92-10.878-13.93-.016 0-.029.005-.045 0s-.036-.005-.055-.005c-27.759 0-26.169-.071-26.524.148-.55.339-13.476 8.504-13.476 26.852h-4.22c-.72278539.0001202-1.38926982.3902099-1.74330852 1.020349-.3540387.6301392-.3405399 1.4022721.03530852 2.019651zm37.499-44.626h-18.3c2.0782316-4.7539875 5.372921-8.87614343 9.552-11.951 1.57.302 8.335 2.171 8.748 11.951zm-47.978 15c.55228475 0 1-.4477153 1-1v-1c-.17306073-9.829614 4.4070822-19.13884747 12.3-25h22.74c-3.9122707 3.42643794-6.93009 7.7551139-8.792 12.611-1.762 4.122-2.248 8.931-2.248 13.389 0 .5522847.4477153 1 1 1h5.22l-17.38 28.542c-.1920519.2668123-.4992403.4267575-.8279558.4310957-.3287156.0043382-.640018-.1474446-.8390442-.4090957l-17.393-28.564z"/></svg>